<svg xmlns="http://www.w3.org/2000/svg" data-bbox="0 0 50 50" data-type="shape" width="50" height="50" style=""><rect id="backgroundrect" width="100%" height="100%" x="0" y="0" fill="none" stroke="none"/>
                      
                    <g class="currentLayer" style=""><title>Layer 1</title><g id="svg_1" class="selected" stroke-opacity="0.01" stroke="#ffffff" opacity="1" fill="#f76b1b" fill-opacity="1">
                        <path d="M24.795918375253677,48.38312245202064 c-5.924,0 -11.31,-2.252 -15.396,-5.921 c2.254,-5.362 7.492,-8.267 15.373,-8.267 c7.889,0 13.139,3.044 15.408,8.418 c-4.084,3.6590000000000007 -9.471,5.77 -15.385,5.77 m0.278,-35.3 c4.927,0 8.611,3.8120000000000003 8.611,8.878 c0,5.21 -3.875,9.456 -8.611,9.456 s-8.611,-4.246 -8.611,-9.456 c0,-5.066 3.684,-8.878 8.611,-8.878 M24.795918375253677,0.30612245202064514 C10.988918375253677,0.30612245202064514 -0.20408162474632263,11.499122452020645 -0.20408162474632263,25.306122452020645 c0,0.915 0.056000000000000015,1.816 0.15200000000000005,2.705 c0.032000000000000015,0.2950000000000001 0.09100000000000005,0.5810000000000002 0.133,0.8730000000000002 c0.08500000000000003,0.5890000000000002 0.17300000000000001,1.176 0.2980000000000001,1.7510000000000003 c0.07300000000000002,0.3380000000000002 0.16900000000000007,0.6650000000000003 0.256,0.997 c0.135,0.515 0.273,1.027 0.4390000000000001,1.529 c0.11400000000000003,0.3420000000000002 0.24300000000000005,0.6750000000000004 0.3700000000000001,1.01 c0.18000000000000005,0.4760000000000001 0.3690000000000001,0.9450000000000002 0.5770000000000002,1.4060000000000001 c0.14900000000000005,0.3310000000000001 0.3080000000000001,0.6570000000000003 0.4720000000000001,0.98 c0.22500000000000006,0.4460000000000001 0.463,0.8830000000000002 0.7140000000000002,1.3130000000000002 c0.18200000000000005,0.3120000000000001 0.3650000000000001,0.6190000000000002 0.56,0.922 c0.272,0.4230000000000001 0.56,0.8320000000000002 0.8560000000000002,1.237 c0.20700000000000005,0.2840000000000001 0.4100000000000001,0.5680000000000002 0.6290000000000002,0.8410000000000002 c0.3250000000000001,0.4080000000000001 0.6710000000000004,0.796 1.02,1.182 c0.22000000000000006,0.24400000000000005 0.4320000000000001,0.4940000000000001 0.6620000000000003,0.7280000000000002 c0.405,0.4150000000000001 0.8330000000000002,0.801 1.2650000000000001,1.186 c0.17300000000000001,0.15400000000000005 0.3290000000000001,0.3250000000000001 0.507,0.4750000000000001 l0.004000000000000002,-0.011000000000000006 A24.886,24.886 0 0 0 24.795918375253677,50.306122452020645 a24.881,24.881 0 0 0 16.069,-5.861 a0.126,0.126 0 0 1 0.003000000000000002,0.010000000000000004 c0.17200000000000001,-0.14400000000000004 0.3240000000000001,-0.3090000000000001 0.4900000000000001,-0.458 c0.4420000000000001,-0.3920000000000001 0.8800000000000002,-0.787 1.2930000000000001,-1.209 c0.22800000000000006,-0.232 0.4370000000000001,-0.4790000000000001 0.6550000000000002,-0.7200000000000002 c0.3520000000000001,-0.3890000000000001 0.7010000000000002,-0.78 1.028,-1.191 c0.21800000000000005,-0.272 0.4210000000000001,-0.556 0.6270000000000002,-0.8380000000000002 c0.2970000000000001,-0.405 0.5870000000000002,-0.8160000000000002 0.8590000000000002,-1.24 a26.104,26.104 0 0 0 1.7480000000000002,-3.216 c0.20800000000000005,-0.461 0.3980000000000002,-0.93 0.5790000000000002,-1.4060000000000001 c0.127,-0.3360000000000002 0.256,-0.6690000000000004 0.3690000000000001,-1.012 c0.16700000000000007,-0.502 0.3050000000000001,-1.014 0.4400000000000001,-1.53 c0.08700000000000004,-0.3320000000000002 0.18300000000000005,-0.6590000000000003 0.256,-0.996 c0.126,-0.5760000000000002 0.21400000000000005,-1.1640000000000001 0.2990000000000001,-1.754 c0.042000000000000016,-0.2920000000000001 0.101,-0.5770000000000002 0.133,-0.8720000000000002 c0.09500000000000006,-0.8900000000000002 0.15200000000000005,-1.791 0.15200000000000005,-2.707 C49.79591837525368,11.499122452020645 38.60291837525368,0.30612245202064514 24.795918375253677,0.30612245202064514 " id="svg_2" stroke="#ffffff" stroke-opacity="1" opacity="1" fill="#f76b1b" fill-opacity="1"> 
                        </path>
                      </g></g></svg>